Simulation
nRows=48
nColumns=15
endheader
time  TH_x TH_y TH_z SC_y  SC_z  SC_x  AC_y  AC_z  AC_x  GH_y  GH_z  GH_yy  EL_x  PS_y
1.5  0.000000  0.000000  0.000000  -41.80003949581275  8.942696681403154  14.713411113722941  44.651642622018166  21.944759061854736  5.926702937989135  2.379795648750191  54.47965201397185  2.3812806670286313  19.620266258293128  0.000000
1.53  0.000000  0.000000  0.000000  -41.603104634284925  8.743294617277314  14.27314062108905  44.627415397968804  21.90244206010601  5.682308458910461  2.259641884076005  53.88606852124122  2.116002866113962  19.82824919273677  0.000000
1.56  0.000000  0.000000  0.000000  -41.369059398670494  8.503658362582453  13.750217933918865  44.615415904010874  21.843481055716243  5.4056339570709415  2.1099084100865375  53.10046202621384  1.7313982141183855  20.124975167210547  0.000000
1.5899999999999999  0.000000  0.000000  0.000000  -41.108248655806996  8.231299425965316  13.165007765977938  44.62048243711818  21.75567016211912  5.102603755961422  1.9346929809527413  52.1114871401504  1.2334201784821153  20.52171575664853  0.000000
1.6199999999999999  0.000000  0.000000  0.000000  -40.82707433885023  7.933766106846394  12.529273449784842  44.64374926718839  21.622090399156196  4.775116670796053  1.7413662693130219  50.926659186884784  0.6375376985814063  21.031067668215563  0.000000
1.65  0.000000  0.000000  0.000000  -40.528532828295674  7.617719974719291  11.844870494819057  44.68225828525136  21.428263797632454  4.428915634723944  1.535850792547782  49.56829398166468  -0.031810082529188266  21.66248453414203  0.000000
1.68  0.000000  0.000000  0.000000  -40.21212614466063  7.287623486252711  11.112644814488553  44.73492973059094  21.160108940092226  4.069878886370674  1.3202666708065574  48.06958196129456  -0.7447616206177471  22.41408484710208  0.000000
1.71  0.000000  0.000000  0.000000  -39.875432652161834  6.944125986937208  10.333314865416668  44.80416352949317  20.808467716552634  3.7051071202628507  1.0901001282180671  46.47220932046146  -1.465515112082367  23.265906500815422  0.000000
1.74  0.000000  0.000000  0.000000  -39.51407811045175  6.587119485614397  9.509413426439533  44.89211479424189  20.367040278711013  3.3437148343728658  0.8369869953634358  44.822506344005234  -2.155845084941429  24.1816171996207  0.000000
1.77  0.000000  0.000000  0.000000  -39.12572136230689  6.214923570156004  8.648974887174587  44.998040252395114  19.833272042152114  2.9914293099972316  0.5554979089354836  43.16718532093235  -2.7792218371423627  25.113256479580286  0.000000
1.7999999999999998  0.000000  0.000000  0.000000  -38.70884516277319  5.822365394653876  7.759935016772089  45.114370104151085  19.216294772047256  2.6526243117340855  0.25020226100071274  41.54756612667267  -3.306992516634111  26.0016097304841  0.000000
1.8299999999999998  0.000000  0.000000  0.000000  -38.26761364642304  5.411150041484481  6.854988034246617  45.22855819404239  18.5296181920969  2.333954624363001  -0.05916204785254939  39.99318400345  -3.7246970668392523  26.776236718888132  0.000000
1.8599999999999999  0.000000  0.000000  0.000000  -37.80585216787384  4.986657692530295  5.956856709703723  45.32772069979618  17.785370100626835  2.0348159866647304  -0.3464575943999295  38.5242387271167  -4.030921576724594  27.369968489975815  0.000000
1.89  0.000000  0.000000  0.000000  -37.327993825862166  4.553132750184329  5.0893976782888455  45.40328101948358  16.99847619610762  1.7495853082615511  -0.5966504096309725  37.15321785631594  -4.231625806031758  27.741745508892578  0.000000
1.92  0.000000  0.000000  0.000000  -36.841434578713205  4.116030582092939  4.271659175673104  45.45173174121878  16.18392769402145  1.4750842306754497  -0.8124648463575262  35.88320674884723  -4.33864454060613  27.890888319082315  0.000000
1.95  0.000000  0.000000  0.000000  -36.35843848331205  3.6800996700300397  3.5167671328997616  45.475925888326316  15.357677715822804  1.2106168177909271  -1.0104055498403606  34.709424509242666  -4.367244639681522  27.846616014031255  0.000000
1.98  0.000000  0.000000  0.000000  -35.8927776985285  3.248749339856022  2.8338653589911913  45.482785636089645  14.535082153231953  0.9565421728173787  -1.2085726234866354  33.62068552621777  -4.33665533199459  27.64629195012709  0.000000
2.01  0.000000  0.000000  0.000000  -35.457372612737586  2.8248099038578283  2.230123969589673  45.48063490081895  13.729817190726354  0.7115914352334232  -1.4208219810199283  32.60078305136646  -4.266624441764804  27.322901639560744  0.000000
2.04  0.000000  0.000000  0.000000  -35.06119880543634  2.410723860263507  1.7109535902048538  45.47596775752387  12.95362459255383  0.47252526738195855  -1.6539768663248156  31.62915853172042  -4.175784024566463  26.903408811711717  0.000000
2.07  0.000000  0.000000  0.000000  -34.710858633686485  2.009061871087233  1.2796196127090496  45.4730768243371  12.215560968662588  0.23472446902947391  -1.9092375567361894  30.68335948341066  -4.078118064470657  26.411408350839917  0.000000
2.1  0.000000  0.000000  0.000000  -34.40933021185403  1.6215250817741327  0.9382252851158369  45.47376424740319  11.5205005759075  -0.008615467334694918  -2.183272868185272  29.74243044686491  -3.9797222808440043  25.868727554862648  0.000000
2.13  0.000000  0.000000  0.000000  -34.15555689432578  1.2500161555567102  0.6805973553660492  45.47708478480544  10.873968425834107  -0.2593804955748434  -2.4717634546799387  28.788471293473744  -3.8727491969395476  25.296275500785846  0.000000
2.16  0.000000  0.000000  0.000000  -33.94634741494489  0.8976738109358859  0.4960114887989788  45.48317794444576  10.281241338360271  -0.5147609735610701  -2.7604460260689465  27.80456312833145  -3.746932829934722  24.71276199882858  0.000000
2.19  0.000000  0.000000  0.000000  -33.77735670631458  0.5679521553945132  0.37803024253619155  45.493171265843515  9.745879494142395  -0.7719663189773102  -3.029001826182007  26.771585728534763  -3.587536865364217  24.13523930013064  0.000000
2.2199999999999998  0.000000  0.000000  0.000000  -33.64536044108104  0.2645685970497656  0.32668005925940297  45.51164696404119  9.270981505867482  -1.031005963145103  -3.2513362964893617  25.667240940572224  -3.378999860039732  23.573773855406145  0.000000
2.25  0.000000  0.000000  0.000000  -33.54917990199309  -0.008897115668708626  0.3417513297661425  45.53957538860457  8.863191303424268  -1.2890151464168236  -3.4131352985095877  24.46894477800643  -3.091496419801824  23.03279495956788  0.000000
2.28  0.000000  0.000000  0.000000  -33.479639864508044  -0.24746636177595058  0.42030108150300516  45.57552960951258  8.529139506772855  -1.5482819611966443  -3.528588045638728  23.157597405072238  -2.6759358416769077  22.515626646435404  0.000000
2.31  0.000000  0.000000  0.000000  -33.42919153427551  -0.4459733887421328  0.5663162400096055  45.61583842783839  8.261089100433011  -1.8145765813960912  -3.641407924539687  21.72585734012991  -2.070746979617423  22.033067310306453  0.000000
2.34  0.000000  0.000000  0.000000  -33.388944315964565  -0.5997182145428569  0.7743990745168533  45.65150307783229  8.045269727046213  -2.0891042668457604  -3.808506303788122  20.18106499259655  -1.220802596177278  21.61178417821743  0.000000
2.37  0.000000  0.000000  0.000000  -33.34874733652366  -0.7086330099563086  1.0305748637532313  45.670606572654314  7.868715284791652  -2.3734705489893715  -4.092211317766031  18.54185066037811  -0.07908611172508909  21.283977285143752  0.000000
2.4  0.000000  0.000000  0.000000  -33.30001847632071  -0.7753717807473007  1.3100476864820947  45.65643434575602  7.7258980287462675  -2.6622170510823917  -4.524661267659149  16.829385865175414  1.3664721613438808  21.07089319949105  0.000000
2.4299999999999997  0.000000  0.000000  0.000000  -33.23729029775798  -0.7976572869870675  1.5802059614317787  45.59096304502036  7.615423658963877  -2.944613816326213  -5.0577429492890635  15.061123881330058  3.0498990542961333  20.971298939619018  0.000000
2.46  0.000000  0.000000  0.000000  -33.15599215795319  -0.7772983646596292  1.8150762601270636  45.45333964195326  7.53834355119658  -3.2184204684891218  -5.57338491764743  13.253164034801543  4.8367484423310545  20.969075301294552  0.000000
2.4899999999999998  0.000000  0.000000  0.000000  -33.053469013102735  -0.7214686099122113  1.997394597837344  45.23105672944705  7.494918417842511  -3.484962102108556  -5.94606621592053  11.426834267355797  6.588350770521187  21.042420655390966  0.000000
2.52  0.000000  0.000000  0.000000  -32.92176537233972  -0.6401799760301856  2.12033611338026  44.934346334884694  7.480345738373142  -3.742174429201903  -6.122658936242242  9.611195508296527  8.243111305955088  21.17254107957673  0.000000
2.55  0.000000  0.000000  0.000000  -32.74724856939782  -0.5481533749127278  2.1869317697410544  44.59851998151945  7.4863787065843  -3.977992678897516  -6.239920528531763  7.844637836235547  9.935139775212377  21.3438836446845  0.000000
2.58  0.000000  0.000000  0.000000  -32.512656979430986  -0.46026907418839186  2.205996733016558  44.276816647837116  7.5019531954024785  -4.17627323486912  -6.6814983565907085  6.170482160235662  12.044769556421546  21.541878282719725  0.000000
2.61  0.000000  0.000000  0.000000  -32.2104430979648  -0.387808696592024  2.189689703936265  44.01723618835214  7.5135672779129745  -4.320183086078926  -8.203189413809973  4.631757612381445  15.317293897293599  21.75228508404205  0.000000
2.6399999999999997  0.000000  0.000000  0.000000  -31.846015925151015  -0.3359443724254844  2.148784891616604  43.84962033464636  7.5081518690326225  -4.401825859174178  -12.223937962386696  3.271553424532707  21.14576052125507  21.96386273871181  0.000000
2.67  0.000000  0.000000  0.000000  -31.43687948613832  -0.304141669393861  2.0913430625492437  43.78115345138668  7.475134973167427  -4.420153638938028  -21.977135884784268  2.146960994020926  32.72568961885501  22.165565446096796  0.000000
2.6999999999999997  0.000000  0.000000  0.000000  -31.00150089926417  -0.2886638909906807  2.022415874612436  43.80144397830974  7.4111623583255595  -4.381735955484814  -44.90044043976266  1.3793474374189676  57.44616416972319  22.353027679601055  0.000000
2.73  0.000000  0.000000  0.000000  -30.558666667312185  -0.2833273724231531  1.943942583923967  43.89029324428535  7.321005981957012  -4.297704216968379  -82.55670330900274  1.1913420642856452  96.81367226750959  22.52846361276449  0.000000
2.76  0.000000  0.000000  0.000000  -30.12855140228308  -0.2842531713979011  1.8591032003137526  44.01647123162957  7.219105764757135  -4.185492086617065  -109.27907195401421  1.490293926421144  125.09799941379914  22.71075752927339  0.000000
2.79  0.000000  0.000000  0.000000  -29.734641221853607  -0.28739644131212566  1.768176478788846  44.15394147943865  7.123725202191144  -4.063804566390274  -121.15015670383573  1.903616257513251  138.32577661805212  22.91525747155877  0.000000
2.82  0.000000  0.000000  0.000000  -29.397946297082857  -0.29050562433128835  1.6762915133157945  44.27556074118447  7.0532432928578945  -3.948347309334566  -126.4094808055588  2.2834373228167135  144.70198001456305  23.151945896632167  0.000000
2.85  0.000000  0.000000  0.000000  -29.137942887594257  -0.2881770323001151  1.5849067844751163  44.376982883648715  7.019614709792361  -3.84654187072446  -129.04079614627625  2.6016348804652463  148.21250946259113  23.399508680078796  0.000000
2.88  0.000000  0.000000  0.000000  -28.96901433578115  -0.27824376453668775  1.494959133516048  44.45738641145889  7.029916402878374  -3.7639704821123603  -130.8967888960727  2.869334955189355  150.73638535392945  23.637572268708944  0.000000
2.9099999999999997  0.000000  0.000000  0.000000  -28.896180280354514  -0.2600381086747572  1.3922443332264913  44.53606286024714  7.078272818346336  -3.698072844014639  -133.2205913944143  3.0986756240910767  153.55608805037676  23.823290806493873  0.000000
